<?xml version="1.0" encoding="UTF-8" ?>
<svg xmlns="http://www.w3.org/2000/svg" version="1.1" width="512" height="512">
  <defs id="SvgjsDefs1539">
  </defs>
  <g id="SvgjsG1540" featurekey="root">
  </g>
  <g id="SvgjsG1541" featurekey="symbol1" fill="#000000" transform="matrix(5.3, 0, 0, 5.3, -10, 5)">
	<g>
	  <!-- Chignon -->
	  <path class="st0" d="M66.8,17.9C66.2,12,70.5,6.7,76.4,6.1s11.1,3.7,11.7,9.6c0.6,5.9-3.7,11.1-10.9,11.9" style="fill: #744541; stroke: #492a23; stroke-width: 1; stroke-linecap: round; stroke-linejoin: round; stroke-miterlimit: 10;">
	  </path>
	  <path class="st0" d="M22.4,27.3c-5.8-1.1-9.6-6.7-8.5-12.5s6.7-9.6,12.5-8.5s9.6,6.7,8.5,12.5" style="fill: #744541; stroke: #492a23; stroke-width: 1; stroke-linecap: round; stroke-linejoin: round; stroke-miterlimit: 10;">
	  </path>
	</g>
	<g>
	  <circle class="st1" cx="52" cy="49" r="30.6" style="fill: #f1d7cc;">
	  </circle>
	  <!-- Machoire -->
	  <path class="st1" d="M77.1,65.6c-5.2,8.8-15.4,14.5-26.7,13.9c-9.1-0.5-17-4.9-21.9-11.4" style="fill: none; stroke: #000000; stroke-width: 1; stroke-linecap: round; stroke-miterlimit: 10;">
	  </path>
	  <!-- Scléra gauche -->
	  <path class="st1" d="M39.2,63.3L39.2,63.3c-2.3,0-4.2-1.9-4.2-4.2v-6c0-2.3,1.9-4.2,4.2-4.2h0c2.3,0,4.2,1.9,4.2,4.2v6" style="fill: none; stroke: #000000; stroke-width: 1; stroke-linecap: round; stroke-miterlimit: 10;">
	  </path>
	  <!-- Scléra droite -->
	  <path class="st1" d="M64.5,63.3L64.5,63.3c2.3,0,4.2-1.9,4.2-4.2v-6c0-2.3-1.9-4.2-4.2-4.2h0c-2.3,0-4.2,1.9-4.2,4.2v6" style="fill: none; stroke: #000000; stroke-width: 1; stroke-linecap: round; stroke-miterlimit: 10;">
	  </path>
	  <!-- Bouche -->
	  <line class="st1" x1="48.2" y1="70" x2="51.9" y2="66.3" style="fill: none; stroke: #000000; stroke-width: 1; stroke-linecap: round; stroke-miterlimit: 10;">
	  </line>
	  <line class="st1" x1="55.5" y1="70" x2="51.9" y2="66.3" style="fill: none; stroke: #000000; stroke-width: 1; stroke-linecap: round; stroke-miterlimit: 10;">
	  </line>
	  <!-- Yeux -->
	  <circle class="st1" cx="39.2" cy="52.5" r="3.6" style="fill: #339955; stroke: #000000; stroke-width: 1; stroke-linecap: round; stroke-miterlimit: 10;">
	  </circle>
	  <circle class="st1" cx="64.5" cy="52.5" r="3.6" style="fill: #339955; stroke: #000000; stroke-width: 1; stroke-linecap: round; stroke-miterlimit: 10;">
	  </circle>
	</g>
	<g>
	  <!-- Cheveux -->
	  <path class="st0" d="M39.9,29.5c0.9,8.1,7,14.6,15.2,15.3c-1.7-3.1-0.6-7,1.3-9.7c0.7,2,2,3.8,3.5,5.1c1.6,1.4,3.4,2.3,5.5,2.8   c1.2,0.3,3.1,0,4,0.7c0.6,0.5,1.1,1.6,1.6,2.3c0.9,1.3,1.6,2.7,2.3,4.2c1.9,4,3.2,8.3,3.7,12.7c0.7,6.7-0.8,13.5-4.1,19.4   c8-4,11.4-14.2,12-22.4c0.4-6-0.4-12-1.8-17.9c3.8,2.5,10,1.1,14,0c-3.4-0.7-6.7-2.1-9.6-3.8c-2.9-1.7-5.5-3.8-7.7-6.3   c-1.2-1.4-2.3-2.9-3.2-4.4c-0.4-0.8-0.7-1.6-1.3-2.4c-1.9-2.7-5.1-4.9-8-6.4c-6-3.3-12.9-4.2-19.6-3c-2,0.4-4,1-6,1.4   c-1.3,0.3-2.6,0.6-4,1c-4.5,1.4-8.9,3.5-12.5,6.7c-2.2,1.9-4.1,4.2-5.4,6.8c-0.7,1.4-1.3,2.8-1.8,4.3c-0.5,1.5-0.5,3.2-1,4.7   c-0.6,1.7-2.1,3.4-3.2,4.8c-2.6,2.9-5.7,5-9.4,6.3c-0.8,0.3-2.8,0.9-1.3,1.7C4.7,54.2,7.3,54,9,53.9c3.8-0.1,11.5-0.6,13.2-5   c-4,12.2-2.2,27.2,7.6,36.1c-2.2-13.1-1.7-27.5,2.1-40.2c0.7-2.3,1.2-4.6,1.7-7c1,3,3.6,5.5,6.3,6.9c-0.3-2.9-0.7-5.8-1-8.7   c-0.2-1.3-0.3-2.2,0.1-3.5C39.3,31.5,39.6,30.5,39.9,29.5z" style="fill: #744541; stroke: #492a23; stroke-width: 1; stroke-linecap: round; stroke-linejoin: round; stroke-miterlimit: 10;">
	  </path>
	</g>
  </g>
</svg>
	